<?xml version="1.0" encoding="UTF-8" standalone="yes"?>
<svg version="1.2" baseProfile="tiny-ps" viewBox="0 0 1731 1731" xmlns="http://www.w3.org/2000/svg">
  <title>bimi-svg-tiny-12-ps</title>
  <rect width="100%" height="100%" fill="white"/>
  <path d="M 175.08,1557.48 L 175.08,1558.44 L 1556.52,1558.44 L 1556.52,1557.48 Z" fill="#D60000" stroke="none"/>
  <path d="M 470.76,493.80 L 469.80,494.76 L 467.88,494.76 L 463.08,499.56 L 462.12,499.56 L 462.12,500.52 L 461.16,501.48 L 460.20,501.48 L 449.64,512.04 L 448.68,512.04 L 439.08,521.64 L 439.08,522.60 L 438.12,523.56 L 438.12,530.28 L 439.08,531.24 L 439.08,532.20 L 440.04,533.16 L 440.04,536.04 L 441.96,537.96 L 441.96,539.88 L 442.92,540.84 L 442.92,541.80 L 443.88,542.76 L 443.88,543.72 L 445.80,545.64 L 445.80,548.52 L 446.76,549.48 L 446.76,550.44 L 447.72,551.40 L 447.72,553.32 L 449.64,555.24 L 449.64,557.16 L 451.56,559.08 L 451.56,560.04 L 452.52,561.00 L 452.52,562.92 L 453.48,563.88 L 453.48,564.84 L 455.40,566.76 L 455.40,569.64 L 456.36,570.60 L 456.36,571.56 L 457.32,572.52 L 457.32,573.48 L 458.28,574.44 L 458.28,576.36 L 459.24,577.32 L 459.24,578.28 L 460.20,579.24 L 460.20,580.20 L 461.16,581.16 L 461.16,582.12 L 462.12,583.08 L 462.12,584.04 L 463.08,585.00 L 463.08,586.92 L 464.04,587.88 L 464.04,588.84 L 465.00,589.80 L 465.00,590.76 L 465.96,591.72 L 465.96,592.68 L 466.92,593.64 L 466.92,594.60 L 467.88,595.56 L 467.88,596.52 L 468.84,597.48 L 468.84,598.44 L 469.80,599.40 L 469.80,600.36 L 470.76,601.32 L 470.76,603.24 L 471.72,604.20 L 471.72,606.12 L 472.68,607.08 L 472.68,608.04 L 474.60,609.96 L 474.60,611.88 L 475.56,612.84 L 475.56,613.80 L 476.52,614.76 L 476.52,616.68 L 478.44,618.60 L 478.44,621.48 L 479.40,622.44 L 479.40,623.40 L 480.36,624.36 L 480.36,625.32 L 482.28,627.24 L 482.28,629.16 L 483.24,630.12 L 483.24,631.08 L 484.20,632.04 L 484.20,633.00 L 485.16,633.96 L 485.16,634.92 L 486.12,635.88 L 486.12,637.80 L 488.04,639.72 L 488.04,642.60 L 489.96,644.52 L 489.96,645.48 L 490.92,646.44 L 490.92,647.40 L 491.88,648.36 L 491.88,650.28 L 492.84,651.24 L 492.84,652.20 L 493.80,653.16 L 493.80,654.12 L 494.76,655.08 L 494.76,656.04 L 495.72,657.00 L 495.72,658.92 L 496.68,659.88 L 496.68,660.84 L 497.64,661.80 L 497.64,662.76 L 498.60,663.72 L 498.60,664.68 L 499.56,665.64 L 499.56,667.56 L 501.48,669.48 L 501.48,672.36 L 503.40,674.28 L 503.40,675.24 L 504.36,676.20 L 504.36,678.12 L 505.32,679.08 L 505.32,680.04 L 506.28,681.00 L 506.28,681.96 L 507.24,682.92 L 507.24,683.88 L 508.20,684.84 L 508.20,685.80 L 509.16,686.76 L 509.16,688.68 L 510.12,689.64 L 510.12,690.60 L 511.08,691.56 L 511.08,692.52 L 512.04,693.48 L 512.04,694.44 L 513.00,695.40 L 513.00,696.36 L 513.96,697.32 L 513.96,698.28 L 514.92,699.24 L 514.92,701.16 L 515.88,702.12 L 515.88,703.08 L 516.84,704.04 L 516.84,705.00 L 517.80,705.96 L 517.80,706.92 L 518.76,707.88 L 518.76,709.80 L 519.72,710.76 L 519.72,711.72 L 520.68,712.68 L 520.68,714.60 L 522.60,716.52 L 522.60,718.44 L 524.52,720.36 L 524.52,722.28 L 525.48,723.24 L 525.48,724.20 L 526.44,725.16 L 526.44,726.12 L 527.40,727.08 L 527.40,728.04 L 528.36,729.00 L 528.36,729.96 L 529.32,730.92 L 529.32,731.88 L 530.28,732.84 L 530.28,734.76 L 531.24,735.72 L 531.24,736.68 L 532.20,737.64 L 532.20,739.56 L 533.16,740.52 L 533.16,741.48 L 534.12,742.44 L 534.12,743.40 L 535.08,744.36 L 535.08,745.32 L 536.04,746.28 L 536.04,748.20 L 537.00,748.20 L 537.96,749.16 L 537.96,752.04 L 538.92,753.00 L 538.92,753.96 L 539.88,754.92 L 539.88,755.88 L 540.84,756.84 L 540.84,757.80 L 541.80,758.76 L 541.80,760.68 L 542.76,761.64 L 542.76,762.60 L 544.68,764.52 L 544.68,765.48 L 545.64,766.44 L 545.64,768.36 L 546.60,769.32 L 546.60,770.28 L 547.56,771.24 L 547.56,773.16 L 548.52,774.12 L 548.52,775.08 L 549.48,776.04 L 549.48,777.00 L 550.44,777.96 L 550.44,778.92 L 551.40,779.88 L 551.40,780.84 L 552.36,781.80 L 552.36,782.76 L 553.32,783.72 L 553.32,784.68 L 554.28,785.64 L 554.28,787.56 L 555.24,788.52 L 555.24,790.44 L 557.16,792.36 L 557.16,795.24 L 559.08,797.16 L 559.08,798.12 L 561.00,800.04 L 561.00,801.96 L 561.96,802.92 L 561.96,803.88 L 562.92,804.84 L 562.92,806.76 L 564.84,808.68 L 564.84,811.56 L 566.76,813.48 L 566.76,814.44 L 567.72,815.40 L 567.72,816.36 L 568.68,817.32 L 568.68,820.20 L 570.60,822.12 L 570.60,823.08 L 571.56,824.04 L 571.56,825.00 L 572.52,825.96 L 572.52,827.88 L 574.44,829.80 L 574.44,831.72 L 575.40,832.68 L 575.40,833.64 L 576.36,834.60 L 576.36,836.52 L 578.28,838.44 L 578.28,841.32 L 580.20,843.24 L 580.20,844.20 L 581.16,845.16 L 581.16,846.12 L 582.12,847.08 L 582.12,849.00 L 583.08,849.96 L 583.08,850.92 L 584.04,851.88 L 584.04,852.84 L 585.00,853.80 L 585.00,854.76 L 585.96,855.72 L 585.96,857.64 L 586.92,858.60 L 586.92,859.56 L 587.88,860.52 L 587.88,861.48 L 588.84,862.44 L 588.84,863.40 L 589.80,864.36 L 589.80,865.32 L 590.76,866.28 L 590.76,867.24 L 591.72,868.20 L 591.72,870.12 L 592.68,871.08 L 592.68,873.00 L 594.60,874.92 L 594.60,875.88 L 595.56,876.84 L 595.56,878.76 L 596.52,879.72 L 596.52,880.68 L 597.48,881.64 L 597.48,882.60 L 598.44,883.56 L 598.44,884.52 L 599.40,885.48 L 599.40,887.40 L 601.32,889.32 L 601.32,891.24 L 602.28,892.20 L 602.28,893.16 L 603.24,894.12 L 603.24,895.08 L 604.20,896.04 L 604.20,897.96 L 605.16,898.92 L 605.16,899.88 L 606.12,900.84 L 606.12,901.80 L 607.08,902.76 L 607.08,903.72 L 608.04,904.68 L 608.04,905.64 L 609.00,906.60 L 609.00,908.52 L 609.96,909.48 L 609.96,910.44 L 610.92,911.40 L 610.92,912.36 L 611.88,913.32 L 611.88,914.28 L 612.84,915.24 L 612.84,917.16 L 614.76,919.08 L 614.76,921.00 L 615.72,921.96 L 615.72,922.92 L 616.68,923.88 L 616.68,925.80 L 618.60,927.72 L 618.60,929.64 L 619.56,930.60 L 619.56,931.56 L 620.52,932.52 L 620.52,933.48 L 621.48,934.44 L 621.48,935.40 L 622.44,936.36 L 622.44,937.32 L 623.40,938.28 L 623.40,939.24 L 624.36,940.20 L 624.36,942.12 L 625.32,943.08 L 625.32,944.04 L 626.28,945.00 L 626.28,945.96 L 627.24,946.92 L 627.24,947.88 L 628.20,948.84 L 628.20,949.80 L 629.16,950.76 L 629.16,952.68 L 630.12,953.64 L 630.12,954.60 L 631.08,955.56 L 631.08,957.48 L 632.04,958.44 L 632.04,959.40 L 633.00,960.36 L 633.00,961.32 L 633.96,962.28 L 633.96,964.20 L 635.88,966.12 L 635.88,967.08 L 637.80,969.00 L 637.80,970.92 L 638.76,971.88 L 638.76,972.84 L 639.72,973.80 L 639.72,975.72 L 640.68,976.68 L 640.68,977.64 L 641.64,978.60 L 641.64,980.52 L 643.56,982.44 L 643.56,984.36 L 644.52,985.32 L 644.52,986.28 L 645.48,987.24 L 645.48,988.20 L 646.44,989.16 L 646.44,990.12 L 647.40,991.08 L 647.40,993.00 L 648.36,993.96 L 648.36,994.92 L 649.32,995.88 L 649.32,996.84 L 651.24,998.76 L 651.24,1000.68 L 652.20,1001.64 L 652.20,1002.60 L 653.16,1003.56 L 653.16,1004.52 L 654.12,1005.48 L 654.12,1006.44 L 655.08,1007.40 L 655.08,1009.32 L 656.04,1010.28 L 656.04,1011.24 L 657.00,1012.20 L 657.00,1013.16 L 657.96,1014.12 L 657.96,1015.08 L 658.92,1016.04 L 658.92,1017.96 L 660.84,1019.88 L 660.84,1021.80 L 661.80,1022.76 L 661.80,1023.72 L 662.76,1024.68 L 662.76,1026.60 L 663.72,1027.56 L 663.72,1028.52 L 664.68,1029.48 L 664.68,1030.44 L 665.64,1031.40 L 665.64,1032.36 L 666.60,1033.32 L 666.60,1034.28 L 667.56,1035.24 L 667.56,1036.20 L 668.52,1037.16 L 668.52,1038.12 L 669.48,1039.08 L 669.48,1040.04 L 670.44,1041.00 L 670.44,1041.96 L 671.40,1042.92 L 671.40,1044.84 L 672.36,1045.80 L 672.36,1047.72 L 674.28,1049.64 L 674.28,1051.56 L 676.20,1053.48 L 676.20,1054.44 L 677.16,1055.40 L 677.16,1056.36 L 678.12,1057.32 L 678.12,1060.20 L 680.04,1062.12 L 680.04,1064.04 L 681.96,1065.96 L 681.96,1067.88 L 683.88,1069.80 L 683.88,1070.76 L 684.84,1071.72 L 684.84,1073.64 L 685.80,1074.60 L 685.80,1076.52 L 687.72,1078.44 L 687.72,1081.32 L 689.64,1083.24 L 689.64,1084.20 L 690.60,1085.16 L 690.60,1086.12 L 691.56,1087.08 L 691.56,1089.00 L 692.52,1089.96 L 692.52,1090.92 L 693.48,1091.88 L 693.48,1093.80 L 694.44,1094.76 L 694.44,1095.72 L 695.40,1096.68 L 695.40,1097.64 L 697.32,1099.56 L 697.32,1101.48 L 698.28,1102.44 L 698.28,1103.40 L 699.24,1104.36 L 699.24,1106.28 L 701.16,1108.20 L 701.16,1111.08 L 703.08,1113.00 L 703.08,1113.96 L 704.04,1114.92 L 704.04,1115.88 L 705.00,1116.84 L 705.00,1118.76 L 706.92,1120.68 L 706.92,1121.64 L 707.88,1122.60 L 707.88,1124.52 L 708.84,1125.48 L 708.84,1126.44 L 709.80,1127.40 L 709.80,1128.36 L 710.76,1129.32 L 710.76,1130.28 L 711.72,1131.24 L 711.72,1132.20 L 712.68,1133.16 L 712.68,1135.08 L 714.60,1137.00 L 714.60,1138.92 L 715.56,1139.88 L 715.56,1140.84 L 716.52,1141.80 L 716.52,1143.72 L 718.44,1145.64 L 718.44,1147.56 L 719.40,1148.52 L 719.40,1149.48 L 720.36,1150.44 L 720.36,1151.40 L 721.32,1152.36 L 721.32,1153.32 L 722.28,1154.28 L 722.28,1156.20 L 723.24,1157.16 L 723.24,1158.12 L 724.20,1159.08 L 724.20,1160.04 L 725.16,1161.00 L 725.16,1161.96 L 726.12,1162.92 L 726.12,1163.88 L 727.08,1164.84 L 727.08,1165.80 L 728.04,1166.76 L 728.04,1168.68 L 729.00,1169.64 L 729.00,1170.60 L 729.96,1171.56 L 729.96,1172.52 L 730.92,1173.48 L 730.92,1174.44 L 731.88,1175.40 L 731.88,1177.32 L 732.84,1178.28 L 732.84,1179.24 L 733.80,1180.20 L 733.80,1181.16 L 734.76,1182.12 L 734.76,1183.08 L 735.72,1184.04 L 735.72,1185.00 L 737.64,1186.92 L 737.64,1189.80 L 738.60,1190.76 L 738.60,1191.72 L 739.56,1192.68 L 739.56,1193.64 L 740.52,1194.60 L 740.52,1195.56 L 741.48,1196.52 L 741.48,1198.44 L 743.40,1200.36 L 743.40,1201.32 L 744.36,1202.28 L 744.36,1203.24 L 745.32,1204.20 L 745.32,1206.12 L 747.24,1208.04 L 747.24,1210.92 L 748.20,1211.88 L 748.20,1212.84 L 750.12,1214.76 L 750.12,1215.72 L 751.08,1216.68 L 751.08,1218.60 L 752.04,1219.56 L 752.04,1220.52 L 754.92,1223.40 L 754.92,1224.36 L 756.84,1226.28 L 757.80,1226.28 L 758.76,1227.24 L 758.76,1228.20 L 759.72,1228.20 L 760.68,1229.16 L 760.68,1230.12 L 761.64,1230.12 L 765.48,1233.96 L 766.44,1233.96 L 768.36,1235.88 L 769.32,1235.88 L 770.28,1236.84 L 780.84,1236.84 L 781.80,1237.80 L 825.96,1237.80 L 826.92,1238.76 L 827.88,1237.80 L 828.84,1237.80 L 829.80,1238.76 L 833.64,1238.76 L 834.60,1237.80 L 837.48,1237.80 L 838.44,1238.76 L 910.44,1238.76 L 911.40,1237.80 L 912.36,1238.76 L 914.28,1238.76 L 915.24,1237.80 L 947.88,1237.80 L 948.84,1236.84 L 949.80,1237.80 L 950.76,1236.84 L 954.60,1236.84 L 955.56,1235.88 L 956.52,1235.88 L 958.44,1233.96 L 959.40,1233.96 L 961.32,1232.04 L 961.32,1231.08 L 962.28,1230.12 L 964.20,1230.12 L 967.08,1227.24 L 968.04,1227.24 L 968.04,1226.28 L 969.00,1225.32 L 969.96,1225.32 L 969.96,1224.36 L 973.80,1220.52 L 973.80,1219.56 L 974.76,1218.60 L 974.76,1217.64 L 975.72,1216.68 L 975.72,1215.72 L 976.68,1214.76 L 976.68,1213.80 L 977.64,1212.84 L 977.64,1210.92 L 979.56,1209.00 L 979.56,1207.08 L 980.52,1206.12 L 980.52,1205.16 L 981.48,1204.20 L 981.48,1203.24 L 982.44,1202.28 L 982.44,1201.32 L 983.40,1200.36 L 983.40,1199.40 L 984.36,1198.44 L 984.36,1196.52 L 986.28,1194.60 L 986.28,1193.64 L 987.24,1192.68 L 987.24,1190.76 L 988.20,1189.80 L 988.20,1188.84 L 990.12,1186.92 L 990.12,1184.04 L 991.08,1183.08 L 991.08,1182.12 L 993.00,1180.20 L 993.00,1178.28 L 993.96,1177.32 L 993.96,1176.36 L 994.92,1175.40 L 994.92,1174.44 L 995.88,1173.48 L 995.88,1172.52 L 996.84,1171.56 L 996.84,1170.60 L 997.80,1169.64 L 997.80,1167.72 L 999.72,1165.80 L 999.72,1163.88 L 1000.68,1162.92 L 1000.68,1161.00 L 1002.60,1159.08 L 1002.60,1158.12 L 1003.56,1157.16 L 1003.56,1155.24 L 1005.48,1153.32 L 1005.48,1152.36 L 1006.44,1151.40 L 1006.44,1149.48 L 1007.40,1148.52 L 1007.40,1146.60 L 1009.32,1144.68 L 1009.32,1142.76 L 1010.28,1141.80 L 1010.28,1140.84 L 1011.24,1139.88 L 1011.24,1138.92 L 1012.20,1137.96 L 1012.20,1137.00 L 1013.16,1136.04 L 1013.16,1135.08 L 1014.12,1134.12 L 1014.12,1131.24 L 1015.08,1130.28 L 1016.04,1130.28 L 1016.04,1128.36 L 1017.00,1127.40 L 1017.00,1125.48 L 1018.92,1123.56 L 1018.92,1122.60 L 1019.88,1121.64 L 1019.88,1119.72 L 1020.84,1118.76 L 1020.84,1117.80 L 1022.76,1115.88 L 1022.76,1113.96 L 1023.72,1113.00 L 1023.72,1111.08 L 1024.68,1110.12 L 1024.68,1109.16 L 1026.60,1107.24 L 1026.60,1105.32 L 1027.56,1104.36 L 1027.56,1102.44 L 1029.48,1100.52 L 1029.48,1099.56 L 1030.44,1098.60 L 1030.44,1096.68 L 1032.36,1094.76 L 1032.36,1092.84 L 1033.32,1091.88 L 1033.32,1090.92 L 1034.28,1089.96 L 1034.28,1088.04 L 1035.24,1087.08 L 1036.20,1087.08 L 1036.20,1084.20 L 1037.16,1083.24 L 1037.16,1082.28 L 1039.08,1080.36 L 1039.08,1078.44 L 1040.04,1077.48 L 1040.04,1075.56 L 1041.00,1074.60 L 1041.00,1073.64 L 1042.92,1071.72 L 1042.92,1069.80 L 1044.84,1067.88 L 1044.84,1066.92 L 1045.80,1065.96 L 1045.80,1064.04 L 1046.76,1063.08 L 1046.76,1061.16 L 1047.72,1060.20 L 1047.72,1059.24 L 1049.64,1057.32 L 1049.64,1055.40 L 1050.60,1054.44 L 1050.60,1053.48 L 1051.56,1052.52 L 1051.56,1051.56 L 1052.52,1050.60 L 1052.52,1049.64 L 1053.48,1048.68 L 1053.48,1046.76 L 1054.44,1045.80 L 1054.44,1044.84 L 1055.40,1043.88 L 1055.40,1042.92 L 1056.36,1041.96 L 1056.36,1041.00 L 1057.32,1040.04 L 1057.32,1038.12 L 1058.28,1037.16 L 1059.24,1037.16 L 1059.24,1035.24 L 1060.20,1034.28 L 1060.20,1032.36 L 1061.16,1031.40 L 1061.16,1030.44 L 1062.12,1029.48 L 1062.12,1028.52 L 1063.08,1027.56 L 1063.08,1026.60 L 1064.04,1025.64 L 1064.04,1023.72 L 1065.96,1021.80 L 1065.96,1020.84 L 1066.92,1019.88 L 1066.92,1017.96 L 1067.88,1017.00 L 1067.88,1016.04 L 1068.84,1015.08 L 1068.84,1014.12 L 1069.80,1013.16 L 1069.80,1012.20 L 1070.76,1011.24 L 1070.76,1008.36 L 1071.72,1007.40 L 1072.68,1007.40 L 1072.68,1005.48 L 1073.64,1004.52 L 1073.64,1003.56 L 1074.60,1002.60 L 1074.60,1001.64 L 1075.56,1000.68 L 1075.56,999.72 L 1076.52,998.76 L 1076.52,996.84 L 1077.48,995.88 L 1077.48,993.96 L 1079.40,992.04 L 1079.40,991.08 L 1080.36,990.12 L 1080.36,989.16 L 1082.28,987.24 L 1082.28,985.32 L 1083.24,984.36 L 1083.24,982.44 L 1084.20,981.48 L 1084.20,980.52 L 1085.16,979.56 L 1085.16,978.60 L 1086.12,977.64 L 1086.12,976.68 L 1087.08,975.72 L 1087.08,973.80 L 1089.00,971.88 L 1089.00,970.92 L 1089.96,969.96 L 1089.96,968.04 L 1090.92,967.08 L 1090.92,966.12 L 1092.84,964.20 L 1092.84,962.28 L 1093.80,961.32 L 1093.80,959.40 L 1095.72,957.48 L 1095.72,955.56 L 1096.68,954.60 L 1096.68,953.64 L 1097.64,952.68 L 1097.64,951.72 L 1099.56,949.80 L 1099.56,946.92 L 1100.52,945.96 L 1100.52,945.00 L 1101.48,944.04 L 1101.48,943.08 L 1102.44,942.12 L 1102.44,941.16 L 1103.40,940.20 L 1103.40,938.28 L 1104.36,937.32 L 1105.32,937.32 L 1105.32,935.40 L 1106.28,934.44 L 1106.28,932.52 L 1107.24,931.56 L 1107.24,929.64 L 1109.16,927.72 L 1109.16,926.76 L 1110.12,925.80 L 1110.12,923.88 L 1112.04,921.96 L 1112.04,921.00 L 1113.00,920.04 L 1113.00,918.12 L 1113.96,917.16 L 1113.96,916.20 L 1114.92,915.24 L 1114.92,914.28 L 1115.88,913.32 L 1115.88,912.36 L 1116.84,911.40 L 1116.84,909.48 L 1117.80,908.52 L 1117.80,907.56 L 1119.72,905.64 L 1119.72,903.72 L 1120.68,902.76 L 1120.68,900.84 L 1122.60,898.92 L 1122.60,897.00 L 1123.56,896.04 L 1123.56,895.08 L 1124.52,894.12 L 1124.52,893.16 L 1125.48,892.20 L 1125.48,891.24 L 1126.44,890.28 L 1126.44,889.32 L 1127.40,888.36 L 1127.40,886.44 L 1129.32,884.52 L 1129.32,882.60 L 1130.28,881.64 L 1130.28,879.72 L 1132.20,877.80 L 1132.20,876.84 L 1133.16,875.88 L 1133.16,873.96 L 1134.12,873.00 L 1134.12,872.04 L 1136.04,870.12 L 1136.04,868.20 L 1137.00,867.24 L 1137.00,866.28 L 1138.92,864.36 L 1138.92,862.44 L 1139.88,861.48 L 1139.88,859.56 L 1140.84,858.60 L 1140.84,857.64 L 1142.76,855.72 L 1142.76,853.80 L 1143.72,852.84 L 1143.72,850.92 L 1145.64,849.00 L 1145.64,847.08 L 1146.60,846.12 L 1146.60,844.20 L 1149.48,841.32 L 1149.48,839.40 L 1150.44,838.44 L 1150.44,836.52 L 1152.36,834.60 L 1152.36,832.68 L 1153.32,831.72 L 1153.32,830.76 L 1154.28,829.80 L 1154.28,828.84 L 1155.24,827.88 L 1155.24,826.92 L 1156.20,825.96 L 1156.20,824.04 L 1157.16,823.08 L 1157.16,821.16 L 1158.12,820.20 L 1159.08,820.20 L 1159.08,818.28 L 1160.04,817.32 L 1160.04,816.36 L 1161.00,815.40 L 1161.00,814.44 L 1161.96,813.48 L 1161.96,812.52 L 1162.92,811.56 L 1162.92,809.64 L 1163.88,808.68 L 1163.88,807.72 L 1165.80,805.80 L 1165.80,804.84 L 1166.76,803.88 L 1166.76,801.96 L 1167.72,801.00 L 1167.72,800.04 L 1168.68,799.08 L 1168.68,798.12 L 1169.64,797.16 L 1169.64,795.24 L 1170.60,794.28 L 1170.60,792.36 L 1171.56,791.40 L 1172.52,791.40 L 1172.52,789.48 L 1173.48,788.52 L 1173.48,786.60 L 1175.40,784.68 L 1175.40,783.72 L 1176.36,782.76 L 1176.36,780.84 L 1177.32,779.88 L 1177.32,777.96 L 1179.24,776.04 L 1179.24,775.08 L 1180.20,774.12 L 1180.20,772.20 L 1182.12,770.28 L 1182.12,768.36 L 1183.08,767.40 L 1183.08,766.44 L 1184.04,765.48 L 1184.04,763.56 L 1185.96,761.64 L 1185.96,759.72 L 1186.92,758.76 L 1186.92,757.80 L 1187.88,756.84 L 1187.88,755.88 L 1189.80,753.96 L 1189.80,752.04 L 1190.76,751.08 L 1190.76,750.12 L 1191.72,749.16 L 1191.72,748.20 L 1192.68,747.24 L 1192.68,745.32 L 1193.64,744.36 L 1193.64,742.44 L 1194.60,741.48 L 1195.56,741.48 L 1195.56,739.56 L 1196.52,738.60 L 1196.52,737.64 L 1197.48,736.68 L 1197.48,735.72 L 1198.44,734.76 L 1198.44,733.80 L 1199.40,732.84 L 1199.40,730.92 L 1200.36,729.96 L 1200.36,728.04 L 1202.28,726.12 L 1202.28,725.16 L 1203.24,724.20 L 1203.24,722.28 L 1205.16,720.36 L 1205.16,719.40 L 1206.12,718.44 L 1206.12,716.52 L 1207.08,715.56 L 1207.08,713.64 L 1209.00,711.72 L 1209.00,709.80 L 1209.96,708.84 L 1209.96,707.88 L 1211.88,705.96 L 1211.88,705.00 L 1212.84,704.04 L 1212.84,702.12 L 1213.80,701.16 L 1213.80,700.20 L 1214.76,699.24 L 1214.76,698.28 L 1215.72,697.32 L 1215.72,695.40 L 1216.68,694.44 L 1216.68,692.52 L 1218.60,690.60 L 1218.60,689.64 L 1219.56,688.68 L 1219.56,687.72 L 1220.52,686.76 L 1220.52,684.84 L 1222.44,682.92 L 1222.44,681.00 L 1223.40,680.04 L 1223.40,678.12 L 1225.32,676.20 L 1225.32,675.24 L 1226.28,674.28 L 1226.28,672.36 L 1227.24,671.40 L 1227.24,670.44 L 1229.16,668.52 L 1229.16,666.60 L 1230.12,665.64 L 1230.12,663.72 L 1232.04,661.80 L 1232.04,660.84 L 1233.00,659.88 L 1233.00,657.96 L 1234.92,656.04 L 1234.92,655.08 L 1235.88,654.12 L 1235.88,652.20 L 1236.84,651.24 L 1236.84,650.28 L 1237.80,649.32 L 1237.80,648.36 L 1238.76,647.40 L 1238.76,646.44 L 1239.72,645.48 L 1239.72,643.56 L 1240.68,642.60 L 1240.68,641.64 L 1241.64,640.68 L 1241.64,639.72 L 1242.60,638.76 L 1242.60,637.80 L 1243.56,636.84 L 1243.56,634.92 L 1244.52,633.96 L 1245.48,633.96 L 1245.48,631.08 L 1246.44,630.12 L 1246.44,629.16 L 1247.40,628.20 L 1247.40,627.24 L 1248.36,626.28 L 1248.36,625.32 L 1249.32,624.36 L 1249.32,623.40 L 1250.28,622.44 L 1250.28,620.52 L 1252.20,618.60 L 1252.20,616.68 L 1253.16,615.72 L 1253.16,613.80 L 1255.08,611.88 L 1255.08,610.92 L 1256.04,609.96 L 1256.04,608.04 L 1257.00,607.08 L 1257.00,605.16 L 1257.96,604.20 L 1258.92,604.20 L 1258.92,602.28 L 1259.88,601.32 L 1259.88,600.36 L 1260.84,599.40 L 1260.84,598.44 L 1261.80,597.48 L 1261.80,596.52 L 1262.76,595.56 L 1262.76,593.64 L 1263.72,592.68 L 1263.72,591.72 L 1265.64,589.80 L 1265.64,587.88 L 1266.60,586.92 L 1266.60,585.00 L 1268.52,583.08 L 1268.52,582.12 L 1269.48,581.16 L 1269.48,579.24 L 1270.44,578.28 L 1270.44,576.36 L 1271.40,575.40 L 1272.36,575.40 L 1272.36,573.48 L 1273.32,572.52 L 1273.32,570.60 L 1275.24,568.68 L 1275.24,567.72 L 1276.20,566.76 L 1276.20,564.84 L 1277.16,563.88 L 1277.16,561.96 L 1279.08,560.04 L 1279.08,559.08 L 1280.04,558.12 L 1280.04,556.20 L 1281.96,554.28 L 1281.96,552.36 L 1284.84,549.48 L 1283.88,548.52 L 1283.88,547.56 L 1285.80,545.64 L 1285.80,543.72 L 1286.76,542.76 L 1286.76,541.80 L 1288.68,539.88 L 1288.68,537.96 L 1289.64,537.00 L 1289.64,536.04 L 1290.60,535.08 L 1290.60,534.12 L 1291.56,533.16 L 1291.56,530.28 L 1292.52,529.32 L 1292.52,527.40 L 1291.56,526.44 L 1291.56,524.52 L 1289.64,522.60 L 1289.64,521.64 L 1281.00,513.00 L 1280.04,513.00 L 1275.24,508.20 L 1275.24,507.24 L 1274.28,507.24 L 1272.36,505.32 L 1271.40,505.32 L 1269.48,503.40 L 1269.48,502.44 L 1265.64,498.60 L 1264.68,498.60 L 1263.72,497.64 L 1262.76,497.64 L 1260.84,495.72 L 1185.00,495.72 L 1184.04,496.68 L 1183.08,495.72 L 1182.12,496.68 L 1181.16,495.72 L 1175.40,495.72 L 1174.44,496.68 L 1072.68,496.68 L 1070.76,498.60 L 1069.80,498.60 L 1069.80,499.56 L 1068.84,500.52 L 1068.84,501.48 L 1067.88,502.44 L 1067.88,503.40 L 1066.92,504.36 L 1066.92,505.32 L 1065.96,506.28 L 1065.96,508.20 L 1065.00,509.16 L 1065.00,510.12 L 1064.04,511.08 L 1064.04,512.04 L 1063.08,513.00 L 1063.08,513.96 L 1062.12,514.92 L 1062.12,515.88 L 1061.16,516.84 L 1061.16,518.76 L 1060.20,519.72 L 1060.20,521.64 L 1058.28,523.56 L 1058.28,525.48 L 1056.36,527.40 L 1056.36,530.28 L 1055.40,531.24 L 1055.40,532.20 L 1054.44,533.16 L 1054.44,535.08 L 1053.48,536.04 L 1053.48,537.00 L 1052.52,537.96 L 1052.52,539.88 L 1051.56,540.84 L 1051.56,541.80 L 1050.60,542.76 L 1050.60,544.68 L 1048.68,546.60 L 1048.68,548.52 L 1047.72,549.48 L 1047.72,550.44 L 1046.76,551.40 L 1046.76,553.32 L 1045.80,554.28 L 1045.80,555.24 L 1044.84,556.20 L 1044.84,558.12 L 1043.88,559.08 L 1043.88,560.04 L 1042.92,561.00 L 1042.92,562.92 L 1041.00,564.84 L 1041.00,566.76 L 1040.04,567.72 L 1040.04,568.68 L 1039.08,569.64 L 1039.08,571.56 L 1038.12,572.52 L 1038.12,573.48 L 1037.16,574.44 L 1037.16,576.36 L 1036.20,577.32 L 1036.20,578.28 L 1035.24,579.24 L 1035.24,580.20 L 1034.28,581.16 L 1034.28,582.12 L 1033.32,583.08 L 1033.32,585.00 L 1032.36,585.96 L 1032.36,587.88 L 1031.40,588.84 L 1031.40,589.80 L 1030.44,590.76 L 1030.44,591.72 L 1029.48,592.68 L 1029.48,595.56 L 1027.56,597.48 L 1027.56,598.44 L 1026.60,599.40 L 1026.60,600.36 L 1025.64,601.32 L 1025.64,604.20 L 1023.72,606.12 L 1023.72,609.00 L 1022.76,609.96 L 1022.76,610.92 L 1021.80,611.88 L 1021.80,612.84 L 1020.84,613.80 L 1020.84,615.72 L 1019.88,616.68 L 1019.88,617.64 L 1018.92,618.60 L 1018.92,619.56 L 1017.96,620.52 L 1017.96,621.48 L 1017.00,622.44 L 1017.00,623.40 L 1016.04,624.36 L 1016.04,626.28 L 1015.08,627.24 L 1015.08,628.20 L 1014.12,629.16 L 1014.12,631.08 L 1013.16,632.04 L 1013.16,633.96 L 1012.20,634.92 L 1012.20,635.88 L 1010.28,637.80 L 1010.28,640.68 L 1009.32,641.64 L 1009.32,642.60 L 1008.36,643.56 L 1008.36,644.52 L 1007.40,645.48 L 1007.40,647.40 L 1006.44,648.36 L 1006.44,650.28 L 1004.52,652.20 L 1004.52,654.12 L 1002.60,656.04 L 1002.60,657.96 L 1001.64,658.92 L 1001.64,659.88 L 1000.68,660.84 L 1000.68,662.76 L 999.72,663.72 L 999.72,665.64 L 998.76,666.60 L 998.76,667.56 L 997.80,668.52 L 997.80,669.48 L 996.84,670.44 L 996.84,672.36 L 995.88,673.32 L 995.88,674.28 L 994.92,675.24 L 994.92,677.16 L 993.96,678.12 L 993.96,679.08 L 993.00,680.04 L 993.00,681.96 L 992.04,682.92 L 992.04,683.88 L 991.08,684.84 L 991.08,686.76 L 989.16,688.68 L 989.16,689.64 L 988.20,690.60 L 988.20,692.52 L 987.24,693.48 L 987.24,694.44 L 986.28,695.40 L 986.28,697.32 L 985.32,698.28 L 985.32,699.24 L 984.36,700.20 L 984.36,701.16 L 983.40,702.12 L 983.40,705.00 L 981.48,706.92 L 981.48,708.84 L 979.56,710.76 L 979.56,712.68 L 978.60,713.64 L 978.60,715.56 L 977.64,716.52 L 977.64,718.44 L 976.68,719.40 L 976.68,720.36 L 975.72,721.32 L 975.72,722.28 L 974.76,723.24 L 974.76,724.20 L 973.80,725.16 L 973.80,727.08 L 972.84,728.04 L 972.84,729.00 L 971.88,729.96 L 971.88,730.92 L 970.92,731.88 L 970.92,732.84 L 969.96,733.80 L 969.96,735.72 L 969.00,736.68 L 969.00,737.64 L 968.04,738.60 L 968.04,740.52 L 967.08,741.48 L 967.08,742.44 L 966.12,743.40 L 966.12,745.32 L 964.20,747.24 L 964.20,750.12 L 963.24,751.08 L 963.24,752.04 L 962.28,753.00 L 962.28,753.96 L 961.32,754.92 L 961.32,756.84 L 960.36,757.80 L 960.36,759.72 L 959.40,760.68 L 959.40,761.64 L 958.44,762.60 L 958.44,763.56 L 956.52,765.48 L 956.52,767.40 L 955.56,768.36 L 955.56,769.32 L 954.60,770.28 L 954.60,772.20 L 953.64,773.16 L 953.64,775.08 L 952.68,776.04 L 952.68,777.00 L 951.72,777.96 L 951.72,778.92 L 950.76,779.88 L 950.76,781.80 L 949.80,782.76 L 949.80,783.72 L 948.84,784.68 L 948.84,785.64 L 947.88,786.60 L 947.88,787.56 L 946.92,788.52 L 946.92,790.44 L 945.96,791.40 L 945.96,792.36 L 945.00,793.32 L 945.00,795.24 L 944.04,796.20 L 944.04,797.16 L 943.08,798.12 L 943.08,799.08 L 942.12,800.04 L 942.12,801.00 L 941.16,801.96 L 941.16,803.88 L 940.20,804.84 L 940.20,805.80 L 939.24,806.76 L 939.24,807.72 L 938.28,808.68 L 938.28,810.60 L 937.32,811.56 L 937.32,813.48 L 936.36,814.44 L 936.36,815.40 L 935.40,816.36 L 935.40,818.28 L 934.44,819.24 L 934.44,820.20 L 933.48,821.16 L 933.48,823.08 L 931.56,825.00 L 931.56,826.92 L 930.60,827.88 L 930.60,829.80 L 929.64,830.76 L 929.64,831.72 L 928.68,832.68 L 928.68,833.64 L 927.72,834.60 L 927.72,836.52 L 926.76,837.48 L 926.76,838.44 L 925.80,839.40 L 925.80,840.36 L 924.84,841.32 L 924.84,842.28 L 923.88,843.24 L 923.88,845.16 L 922.92,846.12 L 922.92,847.08 L 921.96,848.04 L 921.96,849.96 L 921.00,850.92 L 921.00,851.88 L 920.04,852.84 L 920.04,854.76 L 918.12,856.68 L 918.12,858.60 L 917.16,859.56 L 917.16,860.52 L 916.20,861.48 L 916.20,862.44 L 915.24,863.40 L 915.24,865.32 L 914.28,866.28 L 914.28,868.20 L 913.32,869.16 L 913.32,870.12 L 912.36,871.08 L 912.36,872.04 L 911.40,873.00 L 911.40,873.96 L 910.44,874.92 L 910.44,876.84 L 909.48,877.80 L 909.48,878.76 L 908.52,879.72 L 908.52,881.64 L 906.60,883.56 L 906.60,886.44 L 905.64,887.40 L 905.64,888.36 L 904.68,889.32 L 904.68,890.28 L 903.72,891.24 L 903.72,893.16 L 902.76,894.12 L 902.76,895.08 L 901.80,896.04 L 901.80,897.00 L 900.84,897.96 L 900.84,899.88 L 899.88,900.84 L 899.88,902.76 L 898.92,903.72 L 898.92,904.68 L 897.96,905.64 L 897.96,907.56 L 897.00,908.52 L 897.00,910.44 L 895.08,912.36 L 895.08,913.32 L 894.12,914.28 L 894.12,915.24 L 893.16,916.20 L 893.16,919.08 L 891.24,921.00 L 891.24,922.92 L 890.28,923.88 L 890.28,925.80 L 888.36,927.72 L 888.36,928.68 L 887.40,929.64 L 887.40,931.56 L 886.44,932.52 L 886.44,934.44 L 885.48,935.40 L 885.48,936.36 L 884.52,937.32 L 884.52,939.24 L 883.56,940.20 L 883.56,942.12 L 881.64,944.04 L 881.64,945.00 L 880.68,945.96 L 880.68,946.92 L 879.72,947.88 L 879.72,949.80 L 878.76,950.76 L 878.76,951.72 L 877.80,952.68 L 877.80,955.56 L 876.84,956.52 L 876.84,958.44 L 875.88,959.40 L 875.88,960.36 L 874.92,961.32 L 874.92,962.28 L 873.96,963.24 L 873.96,965.16 L 872.04,967.08 L 872.04,968.04 L 870.12,969.96 L 866.28,969.96 L 864.36,968.04 L 864.36,967.08 L 861.48,964.20 L 861.48,961.32 L 860.52,960.36 L 860.52,959.40 L 859.56,958.44 L 859.56,956.52 L 858.60,955.56 L 858.60,954.60 L 857.64,953.64 L 857.64,951.72 L 856.68,950.76 L 856.68,949.80 L 855.72,948.84 L 855.72,947.88 L 854.76,946.92 L 854.76,945.00 L 853.80,944.04 L 853.80,942.12 L 852.84,941.16 L 852.84,940.20 L 851.88,939.24 L 851.88,938.28 L 850.92,937.32 L 850.92,936.36 L 849.96,935.40 L 849.96,933.48 L 849.00,932.52 L 849.00,931.56 L 848.04,930.60 L 848.04,929.64 L 847.08,928.68 L 847.08,926.76 L 846.12,925.80 L 846.12,923.88 L 845.16,922.92 L 845.16,921.96 L 844.20,921.00 L 844.20,920.04 L 843.24,919.08 L 843.24,916.20 L 842.28,916.20 L 841.32,915.24 L 841.32,913.32 L 840.36,912.36 L 840.36,910.44 L 839.40,909.48 L 839.40,908.52 L 838.44,907.56 L 838.44,905.64 L 837.48,904.68 L 837.48,903.72 L 836.52,902.76 L 836.52,900.84 L 834.60,898.92 L 834.60,897.00 L 833.64,896.04 L 833.64,894.12 L 832.68,893.16 L 832.68,892.20 L 831.72,891.24 L 831.72,890.28 L 830.76,889.32 L 830.76,887.40 L 829.80,886.44 L 829.80,884.52 L 828.84,883.56 L 828.84,882.60 L 827.88,881.64 L 827.88,880.68 L 826.92,879.72 L 826.92,877.80 L 825.96,876.84 L 825.96,875.88 L 825.00,874.92 L 825.00,873.96 L 824.04,873.00 L 824.04,871.08 L 823.08,870.12 L 823.08,868.20 L 822.12,867.24 L 822.12,866.28 L 821.16,865.32 L 821.16,864.36 L 820.20,863.40 L 820.20,861.48 L 819.24,860.52 L 819.24,859.56 L 817.32,857.64 L 817.32,854.76 L 816.36,853.80 L 816.36,852.84 L 814.44,850.92 L 814.44,849.00 L 813.48,848.04 L 813.48,846.12 L 812.52,845.16 L 812.52,844.20 L 811.56,843.24 L 811.56,841.32 L 810.60,840.36 L 810.60,839.40 L 809.64,838.44 L 809.64,837.48 L 808.68,836.52 L 808.68,835.56 L 807.72,834.60 L 807.72,831.72 L 806.76,830.76 L 806.76,829.80 L 805.80,828.84 L 805.80,827.88 L 804.84,826.92 L 804.84,825.96 L 803.88,825.00 L 803.88,823.08 L 802.92,822.12 L 802.92,821.16 L 801.96,820.20 L 801.96,819.24 L 801.00,818.28 L 801.00,817.32 L 800.04,816.36 L 800.04,814.44 L 799.08,813.48 L 799.08,812.52 L 798.12,811.56 L 798.12,809.64 L 797.16,808.68 L 797.16,807.72 L 796.20,806.76 L 796.20,805.80 L 795.24,804.84 L 795.24,803.88 L 794.28,802.92 L 794.28,801.00 L 793.32,800.04 L 793.32,798.12 L 792.36,797.16 L 792.36,796.20 L 791.40,795.24 L 791.40,794.28 L 790.44,793.32 L 790.44,791.40 L 788.52,789.48 L 788.52,787.56 L 787.56,786.60 L 787.56,785.64 L 786.60,784.68 L 786.60,782.76 L 785.64,781.80 L 785.64,780.84 L 784.68,779.88 L 784.68,777.96 L 783.72,777.00 L 783.72,776.04 L 782.76,775.08 L 782.76,774.12 L 781.80,773.16 L 781.80,771.24 L 780.84,770.28 L 780.84,769.32 L 779.88,768.36 L 779.88,767.40 L 778.92,766.44 L 778.92,765.48 L 777.96,764.52 L 777.96,762.60 L 777.00,761.64 L 777.00,759.72 L 775.08,757.80 L 775.08,755.88 L 774.12,754.92 L 774.12,753.00 L 773.16,752.04 L 773.16,751.08 L 771.24,749.16 L 771.24,746.28 L 770.28,745.32 L 770.28,744.36 L 769.32,743.40 L 769.32,742.44 L 768.36,741.48 L 768.36,740.52 L 767.40,739.56 L 767.40,737.64 L 766.44,736.68 L 766.44,735.72 L 765.48,734.76 L 765.48,732.84 L 764.52,731.88 L 764.52,730.92 L 763.56,729.96 L 763.56,728.04 L 762.60,727.08 L 762.60,725.16 L 761.64,724.20 L 761.64,722.28 L 759.72,720.36 L 759.72,718.44 L 758.76,717.48 L 758.76,716.52 L 757.80,715.56 L 757.80,714.60 L 756.84,713.64 L 756.84,712.68 L 755.88,711.72 L 755.88,710.76 L 754.92,709.80 L 754.92,706.92 L 753.96,705.96 L 753.96,705.00 L 753.00,704.04 L 753.00,703.08 L 752.04,702.12 L 752.04,700.20 L 751.08,699.24 L 751.08,698.28 L 750.12,697.32 L 750.12,695.40 L 749.16,695.40 L 748.20,694.44 L 748.20,690.60 L 747.24,689.64 L 747.24,688.68 L 746.28,687.72 L 746.28,686.76 L 745.32,685.80 L 745.32,684.84 L 744.36,683.88 L 744.36,681.96 L 743.40,681.00 L 743.40,680.04 L 741.48,678.12 L 741.48,676.20 L 740.52,675.24 L 740.52,674.28 L 739.56,673.32 L 739.56,671.40 L 738.60,670.44 L 738.60,668.52 L 737.64,667.56 L 737.64,666.60 L 736.68,665.64 L 736.68,663.72 L 734.76,661.80 L 734.76,659.88 L 733.80,658.92 L 733.80,657.96 L 732.84,657.00 L 732.84,655.08 L 731.88,654.12 L 731.88,653.16 L 730.92,652.20 L 730.92,650.28 L 729.96,649.32 L 729.96,648.36 L 729.00,647.40 L 729.00,646.44 L 728.04,645.48 L 728.04,644.52 L 727.08,643.56 L 727.08,641.64 L 726.12,640.68 L 726.12,639.72 L 725.16,638.76 L 725.16,637.80 L 724.20,636.84 L 724.20,634.92 L 723.24,633.96 L 723.24,632.04 L 722.28,631.08 L 722.28,630.12 L 721.32,629.16 L 721.32,627.24 L 719.40,625.32 L 719.40,623.40 L 718.44,622.44 L 718.44,621.48 L 717.48,620.52 L 717.48,619.56 L 716.52,618.60 L 716.52,616.68 L 715.56,615.72 L 715.56,613.80 L 714.60,612.84 L 714.60,611.88 L 713.64,610.92 L 713.64,609.00 L 712.68,609.00 L 711.72,608.04 L 711.72,605.16 L 710.76,604.20 L 710.76,603.24 L 709.80,602.28 L 709.80,600.36 L 708.84,599.40 L 708.84,598.44 L 707.88,597.48 L 707.88,596.52 L 706.92,595.56 L 706.92,593.64 L 705.96,592.68 L 705.96,591.72 L 705.00,590.76 L 705.00,589.80 L 704.04,588.84 L 704.04,586.92 L 703.08,585.96 L 703.08,585.00 L 702.12,584.04 L 702.12,583.08 L 701.16,582.12 L 701.16,580.20 L 700.20,579.24 L 700.20,577.32 L 699.24,576.36 L 699.24,575.40 L 698.28,574.44 L 698.28,573.48 L 697.32,572.52 L 698.28,571.56 L 696.36,569.64 L 696.36,568.68 L 694.44,566.76 L 694.44,563.88 L 693.48,562.92 L 693.48,561.96 L 692.52,561.00 L 692.52,559.08 L 691.56,558.12 L 691.56,557.16 L 690.60,556.20 L 690.60,555.24 L 689.64,554.28 L 689.64,552.36 L 688.68,551.40 L 688.68,550.44 L 687.72,549.48 L 687.72,547.56 L 686.76,546.60 L 686.76,545.64 L 685.80,544.68 L 685.80,543.72 L 684.84,542.76 L 684.84,540.84 L 683.88,539.88 L 683.88,537.96 L 682.92,537.00 L 682.92,536.04 L 681.00,534.12 L 681.00,532.20 L 680.04,531.24 L 680.04,530.28 L 679.08,529.32 L 679.08,527.40 L 678.12,526.44 L 678.12,524.52 L 677.16,523.56 L 677.16,522.60 L 675.24,520.68 L 675.24,517.80 L 674.28,516.84 L 674.28,515.88 L 673.32,514.92 L 673.32,513.96 L 672.36,513.00 L 672.36,512.04 L 671.40,511.08 L 671.40,509.16 L 670.44,508.20 L 670.44,507.24 L 669.48,506.28 L 669.48,505.32 L 668.52,504.36 L 668.52,502.44 L 667.56,501.48 L 667.56,500.52 L 666.60,499.56 L 666.60,498.60 L 665.64,497.64 L 665.64,496.68 L 663.72,494.76 L 662.76,494.76 L 661.80,493.80 Z" fill="#D60000" stroke="none"/>
  <path d="M 175.08,173.16 L 175.08,175.08 L 177.00,175.08 L 177.96,174.12 L 178.92,174.12 L 179.88,175.08 L 181.80,175.08 L 182.76,174.12 L 197.16,174.12 L 198.12,175.08 L 200.04,175.08 L 201.00,174.12 L 203.88,174.12 L 204.84,175.08 L 205.80,175.08 L 206.76,174.12 L 208.68,174.12 L 209.64,175.08 L 212.52,175.08 L 213.48,174.12 L 214.44,174.12 L 215.40,175.08 L 216.36,175.08 L 217.32,174.12 L 227.88,174.12 L 228.84,175.08 L 229.80,174.12 L 231.72,174.12 L 232.68,175.08 L 234.60,175.08 L 235.56,174.12 L 236.52,174.12 L 237.48,175.08 L 243.24,175.08 L 244.20,174.12 L 250.92,174.12 L 251.88,175.08 L 266.28,175.08 L 267.24,174.12 L 277.80,174.12 L 278.76,175.08 L 289.32,175.08 L 290.28,174.12 L 291.24,175.08 L 293.16,175.08 L 294.12,174.12 L 307.56,174.12 L 308.52,175.08 L 310.44,175.08 L 311.40,174.12 L 315.24,174.12 L 316.20,175.08 L 317.16,174.12 L 327.72,174.12 L 328.68,175.08 L 335.40,175.08 L 336.36,174.12 L 350.76,174.12 L 351.72,175.08 L 353.64,175.08 L 354.60,174.12 L 357.48,174.12 L 358.44,175.08 L 359.40,174.12 L 365.16,174.12 L 366.12,175.08 L 373.80,175.08 L 374.76,174.12 L 375.72,175.08 L 378.60,175.08 L 379.56,174.12 L 380.52,175.08 L 386.28,175.08 L 387.24,174.12 L 394.92,174.12 L 395.88,175.08 L 396.84,175.08 L 397.80,174.12 L 398.76,174.12 L 399.72,175.08 L 402.60,175.08 L 403.56,174.12 L 414.12,174.12 L 415.08,175.08 L 427.56,175.08 L 428.52,174.12 L 438.12,174.12 L 439.08,175.08 L 441.00,175.08 L 441.96,174.12 L 442.92,174.12 L 443.88,175.08 L 446.76,175.08 L 447.72,174.12 L 455.40,174.12 L 456.36,175.08 L 458.28,175.08 L 459.24,174.12 L 483.24,174.12 L 484.20,175.08 L 485.16,174.12 L 488.04,174.12 L 489.00,175.08 L 489.96,174.12 L 496.68,174.12 L 497.64,175.08 L 499.56,175.08 L 500.52,174.12 L 501.48,175.08 L 502.44,175.08 L 503.40,174.12 L 504.36,174.12 L 505.32,175.08 L 512.04,175.08 L 513.00,174.12 L 518.76,174.12 L 519.72,175.08 L 527.40,175.08 L 528.36,174.12 L 534.12,174.12 L 535.08,175.08 L 536.04,174.12 L 542.76,174.12 L 543.72,175.08 L 544.68,175.08 L 545.64,174.12 L 548.52,174.12 L 549.48,175.08 L 550.44,175.08 L 551.40,174.12 L 552.36,175.08 L 553.32,175.08 L 554.28,174.12 L 556.20,174.12 L 557.16,175.08 L 561.00,175.08 L 561.96,174.12 L 573.48,174.12 L 574.44,175.08 L 577.32,175.08 L 578.28,174.12 L 585.00,174.12 L 585.96,175.08 L 587.88,175.08 L 588.84,174.12 L 589.80,175.08 L 591.72,175.08 L 592.68,174.12 L 593.64,174.12 L 594.60,175.08 L 600.36,175.08 L 601.32,174.12 L 606.12,174.12 L 607.08,175.08 L 608.04,175.08 L 609.00,174.12 L 610.92,174.12 L 611.88,175.08 L 612.84,174.12 L 624.36,174.12 L 625.32,175.08 L 627.24,175.08 L 628.20,174.12 L 629.16,174.12 L 630.12,175.08 L 633.96,175.08 L 634.92,174.12 L 635.88,174.12 L 636.84,175.08 L 638.76,175.08 L 639.72,174.12 L 641.64,174.12 L 642.60,175.08 L 643.56,174.12 L 644.52,175.08 L 646.44,175.08 L 647.40,174.12 L 650.28,174.12 L 651.24,175.08 L 657.00,175.08 L 657.96,174.12 L 661.80,174.12 L 662.76,175.08 L 665.64,175.08 L 666.60,174.12 L 669.48,174.12 L 670.44,175.08 L 673.32,175.08 L 674.28,174.12 L 686.76,174.12 L 687.72,175.08 L 688.68,175.08 L 689.64,174.12 L 696.36,174.12 L 697.32,175.08 L 698.28,175.08 L 699.24,174.12 L 700.20,174.12 L 701.16,175.08 L 702.12,175.08 L 703.08,174.12 L 711.72,174.12 L 712.68,175.08 L 719.40,175.08 L 720.36,174.12 L 721.32,175.08 L 729.96,175.08 L 730.92,174.12 L 745.32,174.12 L 746.28,175.08 L 754.92,175.08 L 755.88,174.12 L 764.52,174.12 L 765.48,175.08 L 766.44,174.12 L 774.12,174.12 L 775.08,175.08 L 777.00,175.08 L 777.96,174.12 L 778.92,174.12 L 779.88,175.08 L 780.84,175.08 L 781.80,174.12 L 798.12,174.12 L 799.08,175.08 L 809.64,175.08 L 810.60,174.12 L 811.56,174.12 L 812.52,175.08 L 813.48,174.12 L 817.32,174.12 L 818.28,175.08 L 819.24,175.08 L 820.20,174.12 L 826.92,174.12 L 827.88,175.08 L 834.60,175.08 L 835.56,174.12 L 842.28,174.12 L 843.24,175.08 L 845.16,175.08 L 846.12,174.12 L 847.08,174.12 L 848.04,175.08 L 852.84,175.08 L 853.80,174.12 L 854.76,174.12 L 855.72,175.08 L 858.60,175.08 L 859.56,174.12 L 862.44,174.12 L 863.40,175.08 L 864.36,174.12 L 865.32,174.12 L 866.28,175.08 L 873.96,175.08 L 874.92,174.12 L 888.36,174.12 L 889.32,175.08 L 890.28,174.12 L 892.20,174.12 L 893.16,175.08 L 897.00,175.08 L 897.96,174.12 L 903.72,174.12 L 904.68,175.08 L 905.64,175.08 L 906.60,174.12 L 911.40,174.12 L 912.36,175.08 L 913.32,174.12 L 914.28,174.12 L 915.24,175.08 L 921.96,175.08 L 922.92,174.12 L 923.88,174.12 L 924.84,175.08 L 930.60,175.08 L 931.56,174.12 L 942.12,174.12 L 943.08,175.08 L 944.04,175.08 L 945.00,174.12 L 946.92,174.12 L 947.88,175.08 L 949.80,175.08 L 950.76,174.12 L 953.64,174.12 L 954.60,175.08 L 961.32,175.08 L 962.28,174.12 L 965.16,174.12 L 966.12,175.08 L 967.08,174.12 L 974.76,174.12 L 975.72,175.08 L 980.52,175.08 L 981.48,174.12 L 988.20,174.12 L 989.16,175.08 L 993.00,175.08 L 993.96,174.12 L 1003.56,174.12 L 1004.52,175.08 L 1011.24,175.08 L 1012.20,174.12 L 1026.60,174.12 L 1027.56,175.08 L 1028.52,174.12 L 1033.32,174.12 L 1034.28,175.08 L 1035.24,174.12 L 1037.16,174.12 L 1038.12,175.08 L 1041.96,175.08 L 1042.92,174.12 L 1046.76,174.12 L 1047.72,175.08 L 1049.64,175.08 L 1050.60,174.12 L 1051.56,174.12 L 1052.52,175.08 L 1055.40,175.08 L 1056.36,174.12 L 1057.32,174.12 L 1058.28,175.08 L 1059.24,175.08 L 1060.20,174.12 L 1064.04,174.12 L 1065.00,175.08 L 1065.96,174.12 L 1090.92,174.12 L 1091.88,175.08 L 1095.72,175.08 L 1096.68,174.12 L 1103.40,174.12 L 1104.36,175.08 L 1105.32,175.08 L 1106.28,174.12 L 1109.16,174.12 L 1110.12,175.08 L 1114.92,175.08 L 1115.88,174.12 L 1118.76,174.12 L 1119.72,175.08 L 1120.68,175.08 L 1121.64,174.12 L 1124.52,174.12 L 1125.48,175.08 L 1129.32,175.08 L 1130.28,174.12 L 1134.12,174.12 L 1135.08,175.08 L 1144.68,175.08 L 1145.64,174.12 L 1149.48,174.12 L 1150.44,175.08 L 1151.40,174.12 L 1154.28,174.12 L 1155.24,175.08 L 1166.76,175.08 L 1167.72,174.12 L 1172.52,174.12 L 1173.48,175.08 L 1178.28,175.08 L 1179.24,174.12 L 1183.08,174.12 L 1184.04,175.08 L 1185.00,175.08 L 1185.96,174.12 L 1202.28,174.12 L 1203.24,175.08 L 1204.20,174.12 L 1205.16,174.12 L 1206.12,175.08 L 1208.04,175.08 L 1209.00,174.12 L 1556.52,174.12 L 1556.52,173.16 Z" fill="#D60000" stroke="none"/>
</svg>